<svg version="1.1" id="LogoInformatique" xmlns="http://www.w3.org/2000/svg" xmlns:xlink="http://www.w3.org/1999/xlink" x="0px" y="0px" width="47.4px" height="41.1px" viewBox="0 0 47.4 41.1" style="enable-background:new 0 0 47.4 41.1;" xml:space="preserve">
<title>HEIA-FR-logo-filiere-informatique</title>
<g fill="#c32823">
	<path d="M6.9,22c-1.1,0-2-0.9-2-2V2c0-1.1,0.9-2,2-2h26.5c1.1,0,2,0.9,2,2v18c0,0,0,0,0,0c0,0,0,0,0,0c0,1.1-0.9,2-2,2H6.9z
		 M33.5,0.8H6.9C6.3,0.8,5.7,1.3,5.7,2v18c0,0.3,0.1,0.6,0.4,0.9s0.5,0.4,0.9,0.4h26.5c0.7,0,1.2-0.6,1.2-1.2c0,0,0,0,0,0
		c0,0,0,0,0,0V2C34.7,1.3,34.1,0.8,33.5,0.8z"></path>
</g>
<g fill="#c32823">
	<path d="M1.8,29.7c-0.6,0-1.2-0.3-1.5-0.8c-0.4-0.5-0.3-1.2,0.1-1.7l4.1-5.2c0.4-0.5,1-0.7,1.6-0.7h10.2c0.2,0,0.4,0.2,0.4,0.4
		S16.5,22,16.2,22H6c-0.4,0-0.7,0.1-0.9,0.4L1,27.7c-0.2,0.2-0.2,0.5,0,0.8c0.2,0.3,0.6,0.5,0.9,0.5l15.8,0c0.2,0,0.4,0.2,0.4,0.4
		s-0.2,0.4-0.4,0.4H1.8C1.8,29.7,1.8,29.7,1.8,29.7z"></path>
</g>
<g fill="#c32823">
	<path d="M31.8,18.1H5.5c-0.2,0-0.4-0.2-0.4-0.4s0.2-0.4,0.4-0.4h26.3c0.2,0,0.4,0.2,0.4,0.4S32,18.1,31.8,18.1z"></path>
</g>
<g fill="#c32823">
	<path d="M25.5,13.8C25.5,13.8,25.5,13.8,25.5,13.8l-10.7,0c-1.4-0.1-2.5-1.2-2.6-2.6c0-0.7,0.2-1.4,0.7-2c0.5-0.6,1.2-0.9,1.9-0.9
		c0.1,0,0.3,0,0.5,0C15.4,7.1,16.6,6,18,6c0.2,0,0.4,0,0.6,0.1C19.4,4.5,21.2,3.7,23,4c1.1,0.2,2,0.8,2.6,1.7
		c0.5,0.8,0.8,1.7,0.7,2.7c1.2,0.3,2,1.4,2,2.7c0,0.7-0.3,1.4-0.9,1.9C26.9,13.6,26.2,13.8,25.5,13.8z M14.8,9.1
		C14.8,9.1,14.8,9.1,14.8,9.1c-0.5,0-1,0.3-1.3,0.7c-0.3,0.4-0.5,0.9-0.5,1.4c0.1,1,0.8,1.8,1.8,1.8l10.6,0c0.5,0,1-0.2,1.4-0.5
		s0.6-0.8,0.6-1.4c0-1-0.7-1.8-1.7-2c-0.1,0-0.2-0.1-0.3-0.2c-0.1-0.1-0.1-0.2-0.1-0.3c0.2-0.9,0-1.7-0.5-2.5
		c-0.5-0.7-1.2-1.2-2.1-1.4c-1.5-0.3-3,0.5-3.7,1.9c-0.1,0.2-0.3,0.3-0.5,0.2c-0.2-0.1-0.5-0.1-0.7-0.1c-1.1,0-1.9,0.9-2,1.9
		c0,0.1,0,0.3-0.1,0.4c-0.1,0.1-0.3,0.1-0.4,0.1C15.3,9.2,15,9.1,14.8,9.1z"></path>
</g>
<g fill="#c32823">
	<path d="M40,35.2c-0.1,0-0.3-0.1-0.3-0.2c-0.1-0.2-0.1-0.4,0.1-0.6c3.2-2.2,4-6.7,1.7-9.9c-0.4-0.6-1-1.2-1.6-1.6
		c-0.2-0.1-0.2-0.4-0.1-0.6c0.1-0.2,0.4-0.2,0.6-0.1c0.7,0.5,1.3,1.1,1.8,1.8c2.5,3.6,1.6,8.5-1.9,11C40.1,35.1,40,35.2,40,35.2z"></path>
</g>
<g fill="#c32823">
	<path d="M42.5,37.7c-0.1,0-0.3-0.1-0.3-0.2c-0.1-0.2-0.1-0.4,0.1-0.6c2.2-1.6,3.7-3.9,4.2-6.6c0.5-2.7-0.1-5.4-1.7-7.6
		c-0.6-0.9-1.4-1.7-2.3-2.3c-0.2-0.1-0.2-0.4-0.1-0.6c0.1-0.2,0.4-0.2,0.6-0.1c1,0.7,1.8,1.6,2.5,2.5c1.7,2.4,2.3,5.3,1.8,8.2
		c-0.5,2.9-2.1,5.4-4.5,7.1C42.6,37.6,42.6,37.7,42.5,37.7z"></path>
</g>
<g fill="#c32823">
	<path d="M37.7,32.8c-0.1,0-0.3-0.1-0.4-0.2c-0.1-0.2,0-0.4,0.2-0.5c0.9-0.5,1.6-1.3,1.9-2.3s0.2-2-0.3-2.9
		c-0.3-0.6-0.9-1.2-1.5-1.5c-0.2-0.1-0.3-0.4-0.1-0.5c0.1-0.2,0.4-0.3,0.5-0.1c0.8,0.4,1.4,1.1,1.8,1.8c0.6,1.1,0.7,2.3,0.4,3.5
		c-0.4,1.2-1.2,2.2-2.2,2.8C37.8,32.7,37.7,32.8,37.7,32.8z"></path>
</g>
<circle cx="34.7" cy="28.6" r="1.2" fill="#c32823"></circle>
<g fill="#c32823">
	<path d="M30,41.1h-7.9c-0.6,0-1.1-0.5-1.1-1.1V25.5c0-0.6,0.5-1.1,1.1-1.1H30c0.6,0,1.1,0.5,1.1,1.1V40C31,40.6,30.6,41.1,30,41.1z
		 M22.1,25.2c-0.2,0-0.3,0.1-0.3,0.3V40c0,0.2,0.1,0.3,0.3,0.3H30c0.2,0,0.3-0.1,0.3-0.3V25.5c0-0.2-0.1-0.3-0.3-0.3H22.1z"></path>
</g>
<g fill="#c32823">
	<path d="M27.7,38.8h-6.2c-0.2,0-0.4-0.2-0.4-0.4s0.2-0.4,0.4-0.4h6.2c0.2,0,0.4,0.2,0.4,0.4S27.9,38.8,27.7,38.8z"></path>
</g>
<g fill="#c32823">
	<path d="M26.7,27.4h-1.3c-0.2,0-0.4-0.2-0.4-0.4s0.2-0.4,0.4-0.4h1.3c0.2,0,0.4,0.2,0.4,0.4S26.9,27.4,26.7,27.4z"></path>
</g>
</svg>