<?xml version="1.0" encoding="UTF-8" standalone="no"?>
<!-- Created with Inkscape (http://www.inkscape.org/) -->

<svg
   xmlns:dc="http://purl.org/dc/elements/1.1/"
   xmlns:cc="http://creativecommons.org/ns#"
   xmlns:rdf="http://www.w3.org/1999/02/22-rdf-syntax-ns#"
   xmlns:svg="http://www.w3.org/2000/svg"
   xmlns="http://www.w3.org/2000/svg"
   xmlns:sodipodi="http://sodipodi.sourceforge.net/DTD/sodipodi-0.dtd"
   xmlns:inkscape="http://www.inkscape.org/namespaces/inkscape"
   id="svg2"
   version="1.1"
   inkscape:version="0.48.5 r10040"
   width="411.25"
   height="67.083375"
   xml:space="preserve"
   sodipodi:docname="logo_heiafr_color.pdf"><metadata
     id="metadata8"><rdf:RDF><cc:Work
         rdf:about=""><dc:format>image/svg+xml</dc:format><dc:type
           rdf:resource="http://purl.org/dc/dcmitype/StillImage" /><dc:title></dc:title></cc:Work></rdf:RDF></metadata><defs
     id="defs6"><clipPath
       clipPathUnits="userSpaceOnUse"
       id="clipPath16"><path
         d="m 0,53.667 329,0 L 329,0 0,0 0,53.667 z"
         id="path18" /></clipPath></defs><sodipodi:namedview
     pagecolor="#ffffff"
     bordercolor="#666666"
     borderopacity="1"
     objecttolerance="10"
     gridtolerance="10"
     guidetolerance="10"
     inkscape:pageopacity="0"
     inkscape:pageshadow="2"
     inkscape:window-width="640"
     inkscape:window-height="480"
     id="namedview4"
     showgrid="false"
     inkscape:zoom="1.1198138"
     inkscape:cx="205.625"
     inkscape:cy="33.541687"
     inkscape:window-x="0"
     inkscape:window-y="0"
     inkscape:window-maximized="0"
     inkscape:current-layer="g10" /><g
     id="g10"
     inkscape:groupmode="layer"
     inkscape:label="logo_heiafr_color"
     transform="matrix(1.25,0,0,-1.25,0,67.083375)"><g
       id="g12"><g
         id="g14"
         clip-path="url(#clipPath16)"><g
           id="g20"
           transform="translate(32.1161,43.5346)"><path
             d="M 0,0 0,1.232 C -9.618,0.401 -17.221,-7.573 -17.464,-17.346 l 1.23,0 c 0.121,4.602 1.965,8.911 5.232,12.179 C -8.014,-2.179 -4.156,-0.38 0,0"
             style="fill:#aa9f93;fill-opacity:1;fill-rule:nonzero;stroke:none"
             id="path22" /></g><g
           id="g24"
           transform="translate(47.307,39.2383)"><path
             d="m 0,0 c -3.269,3.268 -7.512,5.203 -12.074,5.545 l 0,-1.234 c 4.233,-0.339 8.168,-2.145 11.204,-5.181 3.382,-3.382 5.244,-7.878 5.244,-12.661 0,-9.873 -8.032,-17.906 -17.905,-17.906 -4.767,0 -9.249,1.851 -12.627,5.212 l -1.689,0 c 0.253,-0.284 0.513,-0.565 0.784,-0.838 3.615,-3.614 8.421,-5.604 13.532,-5.604 5.111,0 9.917,1.99 13.531,5.604 3.614,3.615 5.605,8.42 5.605,13.532 C 5.605,-8.42 3.614,-3.614 0,0"
             style="fill:#aa9f93;fill-opacity:1;fill-rule:nonzero;stroke:none"
             id="path26" /></g><g
           id="g28"
           transform="translate(45.5541,15.3341)"><path
             d="m 0,0 -2.119,0 1.205,4.841 -2.797,-0.322 0,8.8 -1.339,0 0,-13.319 -14.597,0 0,1.544 -14.943,-0.956 0,-0.511 0.89,-0.077 -7.07,0 -0.062,0 0,-0.062 0,-1.255 0,-0.061 0.062,0 40.77,0 0.062,0 0,0.061 0,1.255 L 0.062,0 0,0 z"
             style="fill:#0979b8;fill-opacity:1;fill-rule:evenodd;stroke:none"
             id="path30" /></g><g
           id="g32"
           transform="translate(26.0153,28.6535)"><path
             d="m 0,0 -0.632,0 -3.303,0 -13.417,-9.824 2.326,0 L 0,0 z"
             style="fill:#0979b8;fill-opacity:1;fill-rule:evenodd;stroke:none"
             id="path34" /></g><g
           id="g36"
           transform="translate(27.3208,33.439)"><path
             d="m 0,0 0.27,0 0,0.224 c 0.006,0.006 0.01,0.012 0.018,0.019 0.44,0.44 2.618,1.059 6.085,1.059 3.466,0 5.645,-0.619 6.084,-1.059 0.008,-0.007 0.013,-0.013 0.018,-0.019 l 0,-0.224 0.271,0 0.595,0 0.271,0 0,0.27 c 0,0.284 -0.118,0.545 -0.351,0.777 -0.47,0.47 -1.514,0.848 -2.922,1.09 -0.347,0.28 -1.225,0.461 -2.236,0.554 l 0.122,0 0.271,0 0,0.27 C 8.496,3.175 8.398,3.382 8.221,3.543 7.908,3.828 7.38,3.949 6.952,3.999 l 0,9.387 0,0.271 -0.271,0 -0.655,0 -0.271,0 0,-0.271 0,-9.384 C 4.932,3.908 4.211,3.601 4.211,2.961 l 0,-0.27 0.271,0 0.149,0 C 3.764,2.613 2.835,2.455 2.426,2.137 0.727,1.856 -0.866,1.314 -0.866,0.27 l 0,-0.27 0.27,0 L 0,0 z"
             style="fill:#0979b8;fill-opacity:1;fill-rule:evenodd;stroke:none"
             id="path38" /></g><g
           id="g40"
           transform="translate(25.9073,26.8416)"><path
             d="m 0,0 -14.943,-8.615 0,-0.53 L 0,-2.786 0,0 z"
             style="fill:#0979b8;fill-opacity:1;fill-rule:evenodd;stroke:none"
             id="path42" /></g><g
           id="g44"
           transform="translate(25.9073,23.2629)"><path
             d="m 0,0 -14.943,-5.914 0,-0.344 L 0,-2.376 0,0 z"
             style="fill:#0979b8;fill-opacity:1;fill-rule:evenodd;stroke:none"
             id="path46" /></g><g
           id="g48"
           transform="translate(10.964,16.308)"><path
             d="m 0,0 14.943,1.403 0,2.357 L 0,0.325 0,0 z"
             style="fill:#0979b8;fill-opacity:1;fill-rule:nonzero;stroke:none"
             id="path50" /></g><g
           id="g52"
           transform="translate(38.4327,32.7019)"><path
             d="m 0,0 c 0.001,0.008 0.003,0.015 0.003,0.023 0,0.56 -2.123,1.014 -4.742,1.014 -2.62,0 -4.743,-0.454 -4.743,-1.014 l 0,-1.663 c 1.348,0.471 4.055,0.501 4.733,0.501 0.682,0 3.406,-0.03 4.749,-0.507 L 0,0 z"
             style="fill:#0979b8;fill-opacity:1;fill-rule:nonzero;stroke:none"
             id="path54" /></g><g
           id="g56"
           transform="translate(38.4327,29.0591)"><path
             d="m 0,0 0,1.256 c -0.517,0.228 -2.11,0.541 -4.749,0.541 -2.613,0 -4.201,-0.307 -4.733,-0.535 l 0,-1.262 0,-0.601 c 1.279,0.395 3.789,0.435 4.724,0.435 0.943,0 3.491,-0.04 4.758,-0.445 L 0,0 z"
             style="fill:#0979b8;fill-opacity:1;fill-rule:evenodd;stroke:none"
             id="path58" /></g><g
           id="g60"
           transform="translate(38.4327,27.1575)"><path
             d="m 0,0 0,0.565 c -0.516,0.198 -2.099,0.464 -4.758,0.464 -2.603,0 -4.175,-0.255 -4.724,-0.452 l 0,-0.577 0,-1.298 c 1.211,0.319 3.542,0.363 4.714,0.363 1.19,0 3.574,-0.044 4.768,-0.377 L 0,0 z"
             style="fill:#0979b8;fill-opacity:1;fill-rule:evenodd;stroke:none"
             id="path62" /></g><g
           id="g64"
           transform="translate(38.4327,23.491)"><path
             d="m 0,0 0,1.641 c -0.525,0.163 -2.119,0.384 -4.768,0.384 -2.564,0 -4.139,-0.207 -4.714,-0.367 l 0,-1.658 0,-0.226 c 1.133,0.243 3.282,0.287 4.704,0.287 1.453,0 3.667,-0.047 4.778,-0.302 L 0,0 z"
             style="fill:#0979b8;fill-opacity:1;fill-rule:evenodd;stroke:none"
             id="path66" /></g><g
           id="g68"
           transform="translate(38.4327,21.59)"><path
             d="m 0,0 0,0.958 c -0.581,0.14 -2.308,0.297 -4.778,0.297 -2.374,0 -4.061,-0.145 -4.704,-0.282 l 0,-0.143 0,-0.83 0,-0.911 c 1.12,0.172 3.28,0.203 4.694,0.203 1.456,0 3.7,-0.033 4.788,-0.218 L 0,0 z"
             style="fill:#0979b8;fill-opacity:1;fill-rule:nonzero;stroke:none"
             id="path70" /></g><g
           id="g72"
           transform="translate(33.6934,17.8235)"><path
             d="M 0,0 C 1.78,0 3.237,-0.042 4.034,-0.097 4.122,-0.1 4.396,-0.115 4.59,-0.151 4.619,-0.157 4.642,-0.161 4.66,-0.166 4.69,-0.174 4.717,-0.183 4.738,-0.191 l 0,0.125 10e-4,0 0,1.931 0,0.275 c -0.602,0.1 -2.327,0.212 -4.788,0.212 -2.338,0 -4.016,-0.102 -4.694,-0.199 l 0,-0.288 0,-1.995 0,-0.054 c 0.036,0.011 0.085,0.022 0.138,0.03 0.048,0.009 0.113,0.019 0.196,0.027 0.121,0.013 0.223,0.021 0.223,0.021 l 0,-0.002 C -3.431,-0.048 -1.9,0 0,0"
             style="fill:#0979b8;fill-opacity:1;fill-rule:nonzero;stroke:none"
             id="path74" /></g><g
           id="g76"
           transform="translate(63.6542,13.9256)"><path
             d="m 0,0 0,3.729 -3.466,0 0,-3.729 -1.296,0 0,8.539 1.296,0 0,-3.645 3.466,0 0,3.645 1.295,0 L 1.295,0 0,0 z"
             style="fill:#aa9f93;fill-opacity:1;fill-rule:nonzero;stroke:none"
             id="path78" /></g><g
           id="g80"
           transform="translate(70.3148,18.6394)"><path
             d="m 0,0 c -0.228,0.228 -0.54,0.348 -0.899,0.348 -0.36,0 -0.66,-0.12 -0.888,-0.348 -0.372,-0.372 -0.42,-1.008 -0.42,-1.668 0,-0.659 0.048,-1.295 0.42,-1.667 0.228,-0.228 0.528,-0.359 0.888,-0.359 0.359,0 0.671,0.131 0.899,0.359 0.372,0.372 0.42,1.008 0.42,1.667 C 0.42,-1.008 0.372,-0.372 0,0 m 0.923,-4.066 c -0.395,-0.408 -0.995,-0.72 -1.822,-0.72 -0.828,0 -1.416,0.312 -1.811,0.72 -0.576,0.599 -0.72,1.367 -0.72,2.398 0,1.02 0.144,1.787 0.72,2.387 0.395,0.408 0.983,0.719 1.811,0.719 0.827,0 1.427,-0.311 1.822,-0.719 0.576,-0.6 0.72,-1.367 0.72,-2.387 0,-1.031 -0.144,-1.799 -0.72,-2.398"
             style="fill:#aa9f93;fill-opacity:1;fill-rule:nonzero;stroke:none"
             id="path82" /></g><g
           id="g84"
           transform="translate(76.1473,13.8533)"><path
             d="m 0,0 c -1.367,0 -2.71,0.84 -2.71,3.118 0,2.279 1.343,3.107 2.71,3.107 0.839,0 1.427,-0.24 2.003,-0.852 L 1.164,4.558 C 0.78,4.978 0.48,5.134 0,5.134 c -0.468,0 -0.863,-0.193 -1.127,-0.54 -0.264,-0.336 -0.36,-0.768 -0.36,-1.476 0,-0.707 0.096,-1.151 0.36,-1.486 0.264,-0.349 0.659,-0.54 1.127,-0.54 0.48,0 0.78,0.156 1.164,0.575 L 2.003,0.864 C 1.427,0.252 0.839,0 0,0"
             style="fill:#aa9f93;fill-opacity:1;fill-rule:nonzero;stroke:none"
             id="path86" /></g><g
           id="g88"
           transform="translate(83.3822,13.9256)"><path
             d="m 0,0 0,3.729 c 0,0.924 -0.54,1.333 -1.223,1.333 -0.684,0 -1.235,-0.42 -1.235,-1.333 l 0,-3.729 -1.224,0 0,8.539 1.224,0 0,-3.07 c 0.419,0.456 0.971,0.683 1.571,0.683 1.355,0 2.111,-0.911 2.111,-2.23 L 1.224,0 0,0 z"
             style="fill:#aa9f93;fill-opacity:1;fill-rule:nonzero;stroke:none"
             id="path90" /></g><g
           id="g92"
           transform="translate(88.5912,13.8533)"><path
             d="M 0,0 C -0.996,0 -1.835,0.168 -2.555,0.876 L -1.751,1.68 C -1.259,1.176 -0.6,1.044 0,1.044 c 0.744,0 1.331,0.264 1.331,0.839 0,0.408 -0.227,0.672 -0.815,0.72 l -0.972,0.084 c -1.139,0.096 -1.799,0.612 -1.799,1.679 0,1.188 1.02,1.859 2.291,1.859 0.911,0 1.691,-0.192 2.255,-0.684 L 1.523,4.762 C 1.139,5.086 0.6,5.205 0.024,5.205 -0.708,5.205 -1.08,4.882 -1.08,4.426 -1.08,4.066 -0.888,3.79 -0.24,3.73 L 0.72,3.646 C 1.859,3.551 2.531,3.011 2.531,1.932 2.531,0.66 1.451,0 0,0"
             style="fill:#aa9f93;fill-opacity:1;fill-rule:nonzero;stroke:none"
             id="path94" /></g><g
           id="g96"
           transform="translate(95.1429,13.8533)"><path
             d="m 0,0 c -1.367,0 -2.71,0.84 -2.71,3.118 0,2.279 1.343,3.107 2.71,3.107 0.839,0 1.427,-0.24 2.003,-0.852 L 1.164,4.558 C 0.78,4.978 0.48,5.134 0,5.134 c -0.468,0 -0.863,-0.193 -1.127,-0.54 -0.264,-0.336 -0.36,-0.768 -0.36,-1.476 0,-0.707 0.096,-1.151 0.36,-1.486 0.264,-0.349 0.659,-0.54 1.127,-0.54 0.48,0 0.78,0.156 1.164,0.575 L 2.003,0.864 C 1.427,0.252 0.839,0 0,0"
             style="fill:#aa9f93;fill-opacity:1;fill-rule:nonzero;stroke:none"
             id="path98" /></g><g
           id="g100"
           transform="translate(102.3778,13.9256)"><path
             d="m 0,0 0,3.729 c 0,0.924 -0.54,1.333 -1.223,1.333 -0.684,0 -1.235,-0.42 -1.235,-1.333 l 0,-3.729 -1.224,0 0,8.539 1.224,0 0,-3.07 c 0.419,0.456 0.971,0.683 1.571,0.683 1.355,0 2.111,-0.911 2.111,-2.23 L 1.224,0 0,0 z"
             style="fill:#aa9f93;fill-opacity:1;fill-rule:nonzero;stroke:none"
             id="path102" /></g><g
           id="g104"
           transform="translate(109.2899,13.9256)"><path
             d="m 0,0 0,0.611 c -0.42,-0.455 -1.008,-0.683 -1.619,-0.683 -0.624,0 -1.14,0.204 -1.5,0.551 -0.467,0.457 -0.611,1.032 -0.611,1.715 l 0,3.887 1.223,0 0,-3.706 c 0,-0.948 0.54,-1.355 1.224,-1.355 0.683,0 1.259,0.419 1.259,1.355 l 0,3.706 1.223,0 L 1.199,0 0,0 z"
             style="fill:#aa9f93;fill-opacity:1;fill-rule:nonzero;stroke:none"
             id="path106" /></g><g
           id="g108"
           transform="translate(114.1991,13.9256)"><path
             d="m 0,0 c -1.163,0 -1.667,0.779 -1.667,1.679 l 0,6.86 1.223,0 0,-6.788 c 0,-0.468 0.168,-0.708 0.66,-0.708 l 0.54,0 L 0.756,0 0,0 z"
             style="fill:#aa9f93;fill-opacity:1;fill-rule:nonzero;stroke:none"
             id="path110" /></g><g
           id="g112"
           transform="translate(119.5961,18.2908)"><path
             d="m 0,0 c -0.192,0.456 -0.624,0.768 -1.199,0.768 -0.576,0 -1.02,-0.312 -1.212,-0.768 -0.12,-0.275 -0.144,-0.455 -0.155,-0.827 l 2.734,0 C 0.156,-0.455 0.12,-0.275 0,0 m -2.566,-1.679 c 0,-1.043 0.551,-1.703 1.546,-1.703 0.684,0 1.044,0.193 1.476,0.624 l 0.779,-0.731 c -0.623,-0.624 -1.211,-0.948 -2.278,-0.948 -1.523,0 -2.735,0.803 -2.735,3.118 0,1.967 1.02,3.106 2.579,3.106 1.631,0 2.578,-1.199 2.578,-2.926 l 0,-0.54 -3.945,0 z"
             style="fill:#aa9f93;fill-opacity:1;fill-rule:nonzero;stroke:none"
             id="path114" /></g><g
           id="g116"
           transform="translate(127.265,18.9627)"><path
             d="m 0,0 0,-5.037 -1.223,0 0,5.037 -0.696,0 0,0.936 0.696,0 0,0.935 c 0,0.876 0.527,1.692 1.667,1.692 l 0.767,0 0,-1.044 -0.54,0 C 0.216,2.519 0,2.255 0,1.812 l 0,-0.876 1.211,0 L 1.211,0 0,0 z"
             style="fill:#aa9f93;fill-opacity:1;fill-rule:nonzero;stroke:none"
             id="path118" /></g><path
           d="m 133.06,22.465 1.104,0 0,-1.295 -1.104,0 0,1.295 z m -2.591,0 1.104,0 0,-1.295 -1.104,0 0,1.295 z m 3.119,-8.539 0,0.611 c -0.42,-0.455 -1.008,-0.684 -1.619,-0.684 -0.624,0 -1.14,0.204 -1.5,0.552 -0.467,0.456 -0.611,1.031 -0.611,1.715 l 0,3.887 1.223,0 0,-3.706 c 0,-0.949 0.539,-1.356 1.224,-1.356 0.683,0 1.259,0.42 1.259,1.356 l 0,3.706 1.223,0 0,-6.081 -1.199,0 z"
           style="fill:#aa9f93;fill-opacity:1;fill-rule:nonzero;stroke:none"
           id="path120" /><g
           id="g122"
           transform="translate(140.2118,18.5789)"><path
             d="m 0,0 c -0.275,0.276 -0.492,0.408 -0.911,0.408 -0.66,0 -1.212,-0.528 -1.212,-1.367 l 0,-3.694 -1.223,0 0,6.081 1.2,0 0,-0.66 c 0.311,0.431 0.935,0.731 1.619,0.731 0.587,0 1.031,-0.155 1.451,-0.575 L 0,0 z"
             style="fill:#aa9f93;fill-opacity:1;fill-rule:nonzero;stroke:none"
             id="path124" /></g><g
           id="g126"
           transform="translate(148.1801,21.3015)"><path
             d="m 0,0 0,-7.376 -1.295,0 0,7.376 -2.351,0 0,1.163 5.997,0 L 2.351,0 0,0 z"
             style="fill:#aa9f93;fill-opacity:1;fill-rule:nonzero;stroke:none"
             id="path128" /></g><g
           id="g130"
           transform="translate(154.5511,18.2908)"><path
             d="m 0,0 c -0.192,0.456 -0.624,0.768 -1.199,0.768 -0.576,0 -1.02,-0.312 -1.212,-0.768 -0.12,-0.275 -0.144,-0.455 -0.155,-0.827 l 2.734,0 C 0.156,-0.455 0.12,-0.275 0,0 m -2.566,-1.679 c 0,-1.043 0.551,-1.703 1.546,-1.703 0.684,0 1.044,0.193 1.476,0.624 l 0.779,-0.731 c -0.623,-0.624 -1.211,-0.948 -2.278,-0.948 -1.523,0 -2.735,0.803 -2.735,3.118 0,1.967 1.02,3.106 2.579,3.106 1.631,0 2.578,-1.199 2.578,-2.926 l 0,-0.54 -3.945,0 z"
             style="fill:#aa9f93;fill-opacity:1;fill-rule:nonzero;stroke:none"
             id="path132" /></g><g
           id="g134"
           transform="translate(160.0834,13.8533)"><path
             d="m 0,0 c -1.367,0 -2.71,0.84 -2.71,3.118 0,2.279 1.343,3.107 2.71,3.107 0.839,0 1.427,-0.24 2.003,-0.852 L 1.164,4.558 C 0.78,4.978 0.48,5.134 0,5.134 c -0.468,0 -0.863,-0.193 -1.127,-0.54 -0.264,-0.336 -0.36,-0.768 -0.36,-1.476 0,-0.707 0.096,-1.151 0.36,-1.486 0.264,-0.349 0.659,-0.54 1.127,-0.54 0.48,0 0.78,0.156 1.164,0.575 L 2.003,0.864 C 1.427,0.252 0.839,0 0,0"
             style="fill:#aa9f93;fill-opacity:1;fill-rule:nonzero;stroke:none"
             id="path136" /></g><g
           id="g138"
           transform="translate(167.3187,13.9256)"><path
             d="m 0,0 0,3.729 c 0,0.924 -0.54,1.333 -1.224,1.333 -0.683,0 -1.235,-0.42 -1.235,-1.333 l 0,-3.729 -1.223,0 0,8.539 1.223,0 0,-3.07 c 0.42,0.456 0.971,0.683 1.571,0.683 1.355,0 2.111,-0.911 2.111,-2.23 L 1.223,0 0,0 z"
             style="fill:#aa9f93;fill-opacity:1;fill-rule:nonzero;stroke:none"
             id="path140" /></g><g
           id="g142"
           transform="translate(174.266,13.9256)"><path
             d="m 0,0 0,3.706 c 0,0.947 -0.539,1.356 -1.223,1.356 -0.683,0 -1.259,-0.42 -1.259,-1.356 l 0,-3.706 -1.223,0 0,6.081 1.199,0 0,-0.612 c 0.42,0.456 1.008,0.683 1.619,0.683 0.623,0 1.139,-0.203 1.499,-0.551 C 1.08,5.146 1.225,4.569 1.225,3.886 L 1.225,0 0,0 z"
             style="fill:#aa9f93;fill-opacity:1;fill-rule:nonzero;stroke:none"
             id="path144" /></g><path
           d="m 177.508,20.007 1.224,0 0,-6.081 -1.224,0 0,6.081 z m -0.035,2.494 1.295,0 0,-1.295 -1.295,0 0,1.295 z"
           style="fill:#aa9f93;fill-opacity:1;fill-rule:nonzero;stroke:none"
           id="path146" /><g
           id="g148"
           transform="translate(184.6342,13.9256)"><path
             d="m 0,0 -1.703,2.807 -0.9,-1.02 0,-1.787 -1.222,0 0,8.539 1.222,0 0,-5.265 2.364,2.807 1.486,0 L -0.864,3.694 1.511,0 0,0 z"
             style="fill:#aa9f93;fill-opacity:1;fill-rule:nonzero;stroke:none"
             id="path150" /></g><g
           id="g152"
           transform="translate(194.1976,13.9256)"><path
             d="m 0,0 0,0.611 c -0.42,-0.455 -1.008,-0.683 -1.619,-0.683 -0.623,0 -1.139,0.204 -1.499,0.551 -0.468,0.457 -0.611,1.032 -0.611,1.715 l 0,3.887 1.223,0 0,-3.706 c 0,-0.948 0.539,-1.355 1.223,-1.355 0.683,0 1.26,0.419 1.26,1.355 l 0,3.706 1.222,0 L 1.199,0 0,0 z"
             style="fill:#aa9f93;fill-opacity:1;fill-rule:nonzero;stroke:none"
             id="path154" /></g><g
           id="g156"
           transform="translate(201.182,13.9256)"><path
             d="m 0,0 0,3.706 c 0,0.947 -0.54,1.356 -1.224,1.356 -0.683,0 -1.258,-0.42 -1.258,-1.356 l 0,-3.706 -1.224,0 0,6.081 1.199,0 0,-0.612 c 0.419,0.456 1.007,0.683 1.619,0.683 0.624,0 1.14,-0.203 1.499,-0.551 C 1.079,5.146 1.223,4.569 1.223,3.886 L 1.223,0 0,0 z"
             style="fill:#aa9f93;fill-opacity:1;fill-rule:nonzero;stroke:none"
             id="path158" /></g><g
           id="g160"
           transform="translate(206.6312,18.9871)"><path
             d="m 0,0 c -1.104,0 -1.271,-0.936 -1.271,-2.016 0,-1.079 0.167,-2.026 1.271,-2.026 1.104,0 1.259,0.947 1.259,2.026 C 1.259,-0.936 1.104,0 0,0 m 1.283,-5.062 0,0.648 c -0.456,-0.552 -0.947,-0.72 -1.607,-0.72 -0.612,0 -1.152,0.204 -1.488,0.54 -0.612,0.612 -0.683,1.656 -0.683,2.578 0,0.924 0.071,1.955 0.683,2.568 0.336,0.336 0.865,0.539 1.476,0.539 0.648,0 1.15,-0.155 1.595,-0.684 l 0,3.071 1.223,0 0,-8.54 -1.199,0 z"
             style="fill:#aa9f93;fill-opacity:1;fill-rule:nonzero;stroke:none"
             id="path162" /></g><g
           id="g164"
           transform="translate(217.0101,20.534)"><path
             d="m 0,0 -1.332,-3.79 2.627,0 L 0,0 z m 2.242,-6.608 -0.588,1.714 -3.369,0 -0.588,-1.714 -1.379,0 3.129,8.539 1.044,0 3.13,-8.539 -1.379,0 z"
             style="fill:#aa9f93;fill-opacity:1;fill-rule:nonzero;stroke:none"
             id="path166" /></g><g
           id="g168"
           transform="translate(225.182,18.5789)"><path
             d="m 0,0 c -0.275,0.276 -0.492,0.408 -0.912,0.408 -0.659,0 -1.211,-0.528 -1.211,-1.367 l 0,-3.694 -1.223,0 0,6.081 1.2,0 0,-0.66 c 0.31,0.431 0.935,0.731 1.619,0.731 0.587,0 1.031,-0.155 1.451,-0.575 L 0,0 z"
             style="fill:#aa9f93;fill-opacity:1;fill-rule:nonzero;stroke:none"
             id="path170" /></g><g
           id="g172"
           transform="translate(229.2474,13.8533)"><path
             d="m 0,0 c -1.367,0 -2.71,0.84 -2.71,3.118 0,2.279 1.343,3.107 2.71,3.107 0.839,0 1.427,-0.24 2.003,-0.852 L 1.163,4.558 C 0.78,4.978 0.479,5.134 0,5.134 c -0.468,0 -0.863,-0.193 -1.128,-0.54 -0.264,-0.336 -0.359,-0.768 -0.359,-1.476 0,-0.707 0.095,-1.151 0.359,-1.486 0.265,-0.349 0.66,-0.54 1.128,-0.54 0.479,0 0.78,0.156 1.163,0.575 L 2.003,0.864 C 1.427,0.252 0.839,0 0,0"
             style="fill:#aa9f93;fill-opacity:1;fill-rule:nonzero;stroke:none"
             id="path174" /></g><g
           id="g176"
           transform="translate(236.4828,13.9256)"><path
             d="m 0,0 0,3.729 c 0,0.924 -0.54,1.333 -1.224,1.333 -0.683,0 -1.235,-0.42 -1.235,-1.333 l 0,-3.729 -1.223,0 0,8.539 1.223,0 0,-3.07 c 0.42,0.456 0.971,0.683 1.571,0.683 1.355,0 2.111,-0.911 2.111,-2.23 L 1.223,0 0,0 z"
             style="fill:#aa9f93;fill-opacity:1;fill-rule:nonzero;stroke:none"
             id="path178" /></g><path
           d="m 239.725,20.007 1.223,0 0,-6.081 -1.223,0 0,6.081 z m -0.036,2.494 1.296,0 0,-1.295 -1.296,0 0,1.295 z"
           style="fill:#aa9f93;fill-opacity:1;fill-rule:nonzero;stroke:none"
           id="path180" /><g
           id="g182"
           transform="translate(244.8363,13.9256)"><path
             d="m 0,0 c -1.141,0 -1.668,0.815 -1.668,1.691 l 0,3.346 -0.695,0 0,0.936 0.695,0 0,1.846 1.224,0 0,-1.846 1.174,0 0,-0.936 -1.174,0 0,-3.286 c 0,-0.443 0.215,-0.708 0.671,-0.708 l 0.503,0 L 0.73,0 0,0 z"
             style="fill:#aa9f93;fill-opacity:1;fill-rule:nonzero;stroke:none"
             id="path184" /></g><g
           id="g186"
           transform="translate(250.6644,18.2908)"><path
             d="M 0,0 C -0.191,0.456 -0.623,0.768 -1.199,0.768 -1.774,0.768 -2.219,0.456 -2.41,0 -2.53,-0.275 -2.555,-0.455 -2.566,-0.827 l 2.734,0 C 0.156,-0.455 0.121,-0.275 0,0 m -2.566,-1.679 c 0,-1.043 0.552,-1.703 1.546,-1.703 0.684,0 1.044,0.193 1.477,0.624 l 0.779,-0.731 c -0.624,-0.624 -1.212,-0.948 -2.279,-0.948 -1.523,0 -2.734,0.803 -2.734,3.118 0,1.967 1.019,3.106 2.578,3.106 1.631,0 2.579,-1.199 2.579,-2.926 l 0,-0.54 -3.946,0 z"
             style="fill:#aa9f93;fill-opacity:1;fill-rule:nonzero;stroke:none"
             id="path188" /></g><g
           id="g190"
           transform="translate(257.6254,13.9256)"><path
             d="m 0,0 -1.703,2.807 -0.901,-1.02 0,-1.787 -1.222,0 0,8.539 1.222,0 0,-5.265 2.364,2.807 1.486,0 L -0.863,3.694 1.511,0 0,0 z"
             style="fill:#aa9f93;fill-opacity:1;fill-rule:nonzero;stroke:none"
             id="path192" /></g><g
           id="g194"
           transform="translate(262.3168,13.9256)"><path
             d="m 0,0 c -1.139,0 -1.666,0.815 -1.666,1.691 l 0,3.346 -0.695,0 0,0.936 0.695,0 0,1.846 1.223,0 0,-1.846 1.175,0 0,-0.936 -1.175,0 0,-3.286 c 0,-0.443 0.216,-0.708 0.672,-0.708 l 0.503,0 L 0.732,0 0,0 z"
             style="fill:#aa9f93;fill-opacity:1;fill-rule:nonzero;stroke:none"
             id="path196" /></g><g
           id="g198"
           transform="translate(268.4125,13.9256)"><path
             d="m 0,0 0,0.611 c -0.42,-0.455 -1.008,-0.683 -1.619,-0.683 -0.623,0 -1.14,0.204 -1.5,0.551 -0.467,0.457 -0.611,1.032 -0.611,1.715 l 0,3.887 1.223,0 0,-3.706 c 0,-0.948 0.54,-1.355 1.224,-1.355 0.683,0 1.26,0.419 1.26,1.355 l 0,3.706 1.222,0 L 1.199,0 0,0 z"
             style="fill:#aa9f93;fill-opacity:1;fill-rule:nonzero;stroke:none"
             id="path200" /></g><g
           id="g202"
           transform="translate(275.0375,18.5789)"><path
             d="m 0,0 c -0.276,0.276 -0.492,0.408 -0.912,0.408 -0.66,0 -1.211,-0.528 -1.211,-1.367 l 0,-3.694 -1.224,0 0,6.081 1.2,0 0,-0.66 c 0.311,0.431 0.935,0.731 1.619,0.731 0.587,0 1.031,-0.155 1.451,-0.575 L 0,0 z"
             style="fill:#aa9f93;fill-opacity:1;fill-rule:nonzero;stroke:none"
             id="path204" /></g><g
           id="g206"
           transform="translate(281.7338,21.3015)"><path
             d="m 0,0 0,-2.603 3.55,0 0,-1.163 -3.55,0 0,-3.61 -1.296,0 0,8.539 5.457,0 L 4.161,0 0,0 z"
             style="fill:#aa9f93;fill-opacity:1;fill-rule:nonzero;stroke:none"
             id="path208" /></g><g
           id="g210"
           transform="translate(290.2758,18.5789)"><path
             d="m 0,0 c -0.275,0.276 -0.491,0.408 -0.91,0.408 -0.66,0 -1.212,-0.528 -1.212,-1.367 l 0,-3.694 -1.224,0 0,6.081 1.2,0 0,-0.66 c 0.312,0.431 0.935,0.731 1.619,0.731 0.588,0 1.031,-0.155 1.451,-0.575 L 0,0 z"
             style="fill:#aa9f93;fill-opacity:1;fill-rule:nonzero;stroke:none"
             id="path212" /></g><g
           id="g214"
           transform="translate(295.2533,18.2908)"><path
             d="M 0,0 C -0.192,0.456 -0.624,0.768 -1.199,0.768 -1.774,0.768 -2.219,0.456 -2.411,0 -2.53,-0.275 -2.555,-0.455 -2.566,-0.827 l 2.734,0 C 0.155,-0.455 0.12,-0.275 0,0 m -2.566,-1.679 c 0,-1.043 0.551,-1.703 1.546,-1.703 0.684,0 1.044,0.193 1.476,0.624 l 0.779,-0.731 c -0.623,-0.624 -1.211,-0.948 -2.279,-0.948 -1.522,0 -2.734,0.803 -2.734,3.118 0,1.967 1.019,3.106 2.579,3.106 1.631,0 2.579,-1.199 2.579,-2.926 l 0,-0.54 -3.946,0 z"
             style="fill:#aa9f93;fill-opacity:1;fill-rule:nonzero;stroke:none"
             id="path216" /></g><path
           d="m 298.231,20.007 1.224,0 0,-6.081 -1.224,0 0,6.081 z m -0.035,2.494 1.295,0 0,-1.295 -1.295,0 0,1.295 z"
           style="fill:#aa9f93;fill-opacity:1;fill-rule:nonzero;stroke:none"
           id="path218" /><g
           id="g220"
           transform="translate(303.8695,18.9871)"><path
             d="m 0,0 c -1.104,0 -1.271,-0.936 -1.271,-2.016 0,-1.079 0.167,-2.026 1.271,-2.026 1.104,0 1.26,0.947 1.26,2.026 C 1.26,-0.936 1.104,0 0,0 m 1.799,-4.594 c -0.336,-0.336 -0.875,-0.54 -1.487,-0.54 -0.66,0 -1.152,0.168 -1.607,0.72 l 0,-0.648 -1.199,0 0,8.54 1.223,0 0,-3.071 c 0.444,0.529 0.947,0.684 1.595,0.684 0.612,0 1.139,-0.203 1.475,-0.539 0.612,-0.613 0.683,-1.644 0.683,-2.568 0,-0.922 -0.071,-1.966 -0.683,-2.578"
             style="fill:#aa9f93;fill-opacity:1;fill-rule:nonzero;stroke:none"
             id="path222" /></g><g
           id="g224"
           transform="translate(311.6566,13.9256)"><path
             d="m 0,0 0,0.611 c -0.42,-0.455 -1.008,-0.683 -1.619,-0.683 -0.623,0 -1.139,0.204 -1.499,0.551 -0.468,0.457 -0.611,1.032 -0.611,1.715 l 0,3.887 1.223,0 0,-3.706 c 0,-0.948 0.539,-1.355 1.223,-1.355 0.683,0 1.26,0.419 1.26,1.355 l 0,3.706 1.222,0 L 1.199,0 0,0 z"
             style="fill:#aa9f93;fill-opacity:1;fill-rule:nonzero;stroke:none"
             id="path226" /></g><g
           id="g228"
           transform="translate(318.1254,18.5789)"><path
             d="m 0,0 c -0.275,0.276 -0.492,0.408 -0.912,0.408 -0.659,0 -1.211,-0.528 -1.211,-1.367 l 0,-3.694 -1.223,0 0,6.081 1.2,0 0,-0.66 c 0.31,0.431 0.935,0.731 1.619,0.731 0.587,0 1.031,-0.155 1.451,-0.575 L 0,0 z"
             style="fill:#aa9f93;fill-opacity:1;fill-rule:nonzero;stroke:none"
             id="path230" /></g><g
           id="g232"
           transform="translate(321.8187,18.9871)"><path
             d="m 0,0 c -1.104,0 -1.247,-0.948 -1.247,-1.907 0,-0.96 0.143,-1.907 1.247,-1.907 1.104,0 1.236,0.947 1.236,1.907 C 1.236,-0.948 1.104,0 0,0 m -0.144,-7.592 c -0.922,0 -1.51,0.216 -2.147,0.804 l 0.78,0.779 c 0.384,-0.36 0.72,-0.54 1.32,-0.54 1.031,0 1.427,0.732 1.427,1.547 l 0,0.78 C 0.792,-4.75 0.288,-4.918 -0.336,-4.918 c -0.611,0 -1.115,0.204 -1.451,0.54 -0.587,0.588 -0.684,1.44 -0.684,2.471 0,1.031 0.097,1.883 0.684,2.47 0.336,0.336 0.851,0.528 1.464,0.528 0.647,0 1.139,-0.168 1.594,-0.72 l 0,0.649 1.188,0 0,-6.045 c 0,-1.488 -0.983,-2.567 -2.603,-2.567"
             style="fill:#aa9f93;fill-opacity:1;fill-rule:nonzero;stroke:none"
             id="path234" /></g><g
           id="g236"
           transform="translate(63.6742,27.6536)"><path
             d="m 0,0 0,3.729 -3.466,0 0,-3.729 -1.296,0 0,8.539 1.296,0 0,-3.645 3.466,0 0,3.645 1.295,0 L 1.295,0 0,0 z"
             style="fill:#0979b8;fill-opacity:1;fill-rule:nonzero;stroke:none"
             id="path238" /></g><g
           id="g240"
           transform="translate(70.2269,30.3401)"><path
             d="m 0,0 -1.427,0 c -0.72,0 -1.092,-0.324 -1.092,-0.876 0,-0.551 0.348,-0.863 1.116,-0.863 0.467,0 0.815,0.036 1.139,0.347 0.18,0.181 0.264,0.468 0.264,0.9 L 0,0 z m 0.024,-2.687 0,0.552 c -0.444,-0.443 -0.863,-0.624 -1.619,-0.624 -0.756,0 -1.259,0.181 -1.631,0.552 -0.312,0.324 -0.48,0.792 -0.48,1.308 0,1.019 0.707,1.751 2.099,1.751 l 1.607,0 0,0.431 c 0,0.768 -0.384,1.14 -1.331,1.14 -0.672,0 -0.996,-0.156 -1.332,-0.588 l -0.803,0.756 c 0.575,0.672 1.175,0.875 2.183,0.875 1.667,0 2.506,-0.707 2.506,-2.087 l 0,-4.066 -1.199,0 z"
             style="fill:#0979b8;fill-opacity:1;fill-rule:nonzero;stroke:none"
             id="path242" /></g><g
           id="g244"
           transform="translate(76.9227,27.6536)"><path
             d="m 0,0 0,0.611 c -0.42,-0.455 -1.008,-0.683 -1.619,-0.683 -0.624,0 -1.14,0.204 -1.5,0.551 -0.467,0.457 -0.611,1.032 -0.611,1.715 l 0,3.887 1.223,0 0,-3.706 c 0,-0.948 0.54,-1.355 1.223,-1.355 0.684,0 1.26,0.419 1.26,1.355 l 0,3.706 1.223,0 L 1.199,0 0,0 z"
             style="fill:#0979b8;fill-opacity:1;fill-rule:nonzero;stroke:none"
             id="path246" /></g><g
           id="g248"
           transform="translate(81.7953,27.6536)"><path
             d="m 0,0 c -1.139,0 -1.667,0.815 -1.667,1.691 l 0,3.346 -0.695,0 0,0.936 0.695,0 0,1.846 1.224,0 0,-1.846 1.175,0 0,-0.936 -1.175,0 0,-3.286 c 0,-0.443 0.215,-0.708 0.671,-0.708 l 0.504,0 L 0.732,0 0,0 z"
             style="fill:#0979b8;fill-opacity:1;fill-rule:nonzero;stroke:none"
             id="path250" /></g><g
           id="g252"
           transform="translate(87.4091,32.0188)"><path
             d="m 0,0 c -0.192,0.456 -0.624,0.768 -1.199,0.768 -0.576,0 -1.02,-0.312 -1.212,-0.768 -0.12,-0.275 -0.144,-0.455 -0.155,-0.827 l 2.734,0 C 0.156,-0.455 0.12,-0.275 0,0 m -2.566,-1.679 c 0,-1.043 0.551,-1.703 1.546,-1.703 0.684,0 1.044,0.193 1.476,0.624 l 0.779,-0.731 c -0.623,-0.624 -1.211,-0.948 -2.278,-0.948 -1.523,0 -2.735,0.803 -2.735,3.118 0,1.967 1.02,3.106 2.579,3.106 1.631,0 2.578,-1.199 2.578,-2.926 l 0,-0.54 -3.945,0 z"
             style="fill:#0979b8;fill-opacity:1;fill-rule:nonzero;stroke:none"
             id="path254" /></g><g
           id="g256"
           transform="translate(95.7255,34.8372)"><path
             d="m 0,0 -0.924,0 0.9,1.943 1.355,0 L 0,0 z m 0.863,-2.818 c -0.192,0.456 -0.623,0.767 -1.199,0.767 -0.576,0 -1.019,-0.311 -1.211,-0.767 -0.12,-0.276 -0.144,-0.455 -0.156,-0.828 l 2.734,0 c -0.012,0.373 -0.048,0.552 -0.168,0.828 m -2.566,-1.679 c 0,-1.043 0.552,-1.703 1.547,-1.703 0.683,0 1.043,0.192 1.475,0.624 l 0.78,-0.732 C 1.475,-6.932 0.887,-7.256 -0.18,-7.256 c -1.523,0 -2.735,0.804 -2.735,3.118 0,1.968 1.02,3.107 2.579,3.107 1.631,0 2.579,-1.199 2.579,-2.926 l 0,-0.54 -3.946,0 z"
             style="fill:#0979b8;fill-opacity:1;fill-rule:nonzero;stroke:none"
             id="path258" /></g><g
           id="g260"
           transform="translate(101.9052,27.5813)"><path
             d="m 0,0 c -1.367,0 -2.71,0.84 -2.71,3.118 0,2.279 1.343,3.107 2.71,3.107 0.839,0 1.427,-0.24 2.003,-0.852 L 1.164,4.558 C 0.78,4.978 0.48,5.134 0,5.134 c -0.468,0 -0.863,-0.193 -1.127,-0.54 -0.264,-0.336 -0.36,-0.768 -0.36,-1.476 0,-0.707 0.096,-1.151 0.36,-1.486 0.264,-0.349 0.659,-0.54 1.127,-0.54 0.48,0 0.78,0.156 1.164,0.575 L 2.003,0.864 C 1.427,0.252 0.839,0 0,0"
             style="fill:#0979b8;fill-opacity:1;fill-rule:nonzero;stroke:none"
             id="path262" /></g><g
           id="g264"
           transform="translate(108.1796,32.3674)"><path
             d="m 0,0 c -0.228,0.228 -0.54,0.348 -0.899,0.348 -0.36,0 -0.66,-0.12 -0.888,-0.348 -0.372,-0.372 -0.42,-1.008 -0.42,-1.668 0,-0.659 0.048,-1.295 0.42,-1.667 0.228,-0.228 0.528,-0.359 0.888,-0.359 0.359,0 0.671,0.131 0.899,0.359 0.372,0.372 0.42,1.008 0.42,1.667 C 0.42,-1.008 0.372,-0.372 0,0 m 0.923,-4.066 c -0.395,-0.408 -0.995,-0.72 -1.822,-0.72 -0.828,0 -1.416,0.312 -1.811,0.72 -0.576,0.599 -0.72,1.367 -0.72,2.398 0,1.02 0.144,1.787 0.72,2.387 0.395,0.408 0.983,0.719 1.811,0.719 0.827,0 1.427,-0.311 1.822,-0.719 0.576,-0.6 0.72,-1.367 0.72,-2.387 0,-1.031 -0.144,-1.799 -0.72,-2.398"
             style="fill:#0979b8;fill-opacity:1;fill-rule:nonzero;stroke:none"
             id="path266" /></g><g
           id="g268"
           transform="translate(113.0282,27.6536)"><path
             d="m 0,0 c -1.164,0 -1.667,0.779 -1.667,1.679 l 0,6.86 1.223,0 0,-6.788 c 0,-0.468 0.168,-0.708 0.66,-0.708 l 0.539,0 L 0.755,0 0,0 z"
             style="fill:#0979b8;fill-opacity:1;fill-rule:nonzero;stroke:none"
             id="path270" /></g><g
           id="g272"
           transform="translate(118.2094,32.0188)"><path
             d="m 0,0 c -0.192,0.456 -0.624,0.768 -1.199,0.768 -0.576,0 -1.02,-0.312 -1.212,-0.768 -0.12,-0.275 -0.144,-0.455 -0.155,-0.827 l 2.734,0 C 0.156,-0.455 0.12,-0.275 0,0 m -2.566,-1.679 c 0,-1.043 0.551,-1.703 1.546,-1.703 0.684,0 1.044,0.193 1.476,0.624 l 0.779,-0.731 c -0.623,-0.624 -1.211,-0.948 -2.278,-0.948 -1.523,0 -2.735,0.803 -2.735,3.118 0,1.967 1.02,3.106 2.579,3.106 1.631,0 2.578,-1.199 2.578,-2.926 l 0,-0.54 -3.945,0 z"
             style="fill:#0979b8;fill-opacity:1;fill-rule:nonzero;stroke:none"
             id="path274" /></g><g
           id="g276"
           transform="translate(126.1298,32.7151)"><path
             d="m 0,0 c -1.104,0 -1.271,-0.936 -1.271,-2.016 0,-1.079 0.167,-2.026 1.271,-2.026 1.104,0 1.259,0.947 1.259,2.026 C 1.259,-0.936 1.104,0 0,0 m 1.283,-5.062 0,0.648 c -0.455,-0.552 -0.947,-0.72 -1.607,-0.72 -0.612,0 -1.151,0.204 -1.487,0.54 -0.612,0.612 -0.684,1.656 -0.684,2.578 0,0.924 0.072,1.955 0.684,2.568 0.336,0.336 0.864,0.539 1.475,0.539 0.648,0 1.151,-0.155 1.595,-0.684 l 0,3.071 1.224,0 0,-8.54 -1.2,0 z"
             style="fill:#0979b8;fill-opacity:1;fill-rule:nonzero;stroke:none"
             id="path278" /></g><g
           id="g280"
           transform="translate(130.4388,33.8421)"><path
             d="m 0,0 0,2.351 1.343,0 0,-1.259 L 0,0 z"
             style="fill:#0979b8;fill-opacity:1;fill-rule:nonzero;stroke:none"
             id="path282" /></g><path
           d="m 133.607,33.735 1.223,0 0,-6.081 -1.223,0 0,6.081 z m -0.036,2.494 1.295,0 0,-1.295 -1.295,0 0,1.295 z"
           style="fill:#0979b8;fill-opacity:1;fill-rule:nonzero;stroke:none"
           id="path284" /><g
           id="g286"
           transform="translate(140.3964,27.6536)"><path
             d="m 0,0 0,3.706 c 0,0.947 -0.54,1.356 -1.223,1.356 -0.684,0 -1.259,-0.42 -1.259,-1.356 l 0,-3.706 -1.224,0 0,6.081 1.2,0 0,-0.612 c 0.42,0.456 1.007,0.683 1.619,0.683 0.623,0 1.139,-0.203 1.499,-0.551 C 1.08,5.146 1.224,4.569 1.224,3.886 L 1.224,0 0,0 z"
             style="fill:#0979b8;fill-opacity:1;fill-rule:nonzero;stroke:none"
             id="path288" /></g><g
           id="g290"
           transform="translate(145.6053,32.7151)"><path
             d="m 0,0 c -1.104,0 -1.248,-0.948 -1.248,-1.907 0,-0.96 0.144,-1.907 1.248,-1.907 1.104,0 1.235,0.947 1.235,1.907 C 1.235,-0.948 1.104,0 0,0 m -0.144,-7.592 c -0.923,0 -1.511,0.216 -2.147,0.804 l 0.78,0.779 c 0.384,-0.36 0.719,-0.54 1.319,-0.54 1.031,0 1.427,0.732 1.427,1.547 l 0,0.78 C 0.792,-4.75 0.288,-4.918 -0.336,-4.918 c -0.612,0 -1.115,0.204 -1.451,0.54 -0.588,0.588 -0.684,1.44 -0.684,2.471 0,1.031 0.096,1.883 0.684,2.47 0.336,0.336 0.851,0.528 1.463,0.528 0.648,0 1.139,-0.168 1.595,-0.72 l 0,0.649 1.187,0 0,-6.045 c 0,-1.488 -0.983,-2.567 -2.602,-2.567"
             style="fill:#0979b8;fill-opacity:1;fill-rule:nonzero;stroke:none"
             id="path292" /></g><g
           id="g294"
           transform="translate(152.5292,34.8372)"><path
             d="m 0,0 -0.924,0 0.9,1.943 1.355,0 L 0,0 z m 0.863,-2.818 c -0.192,0.456 -0.623,0.767 -1.199,0.767 -0.576,0 -1.019,-0.311 -1.211,-0.767 -0.12,-0.276 -0.144,-0.455 -0.156,-0.828 l 2.734,0 c -0.012,0.373 -0.048,0.552 -0.168,0.828 m -2.566,-1.679 c 0,-1.043 0.552,-1.703 1.547,-1.703 0.683,0 1.043,0.192 1.475,0.624 l 0.78,-0.732 C 1.475,-6.932 0.887,-7.256 -0.18,-7.256 c -1.523,0 -2.735,0.804 -2.735,3.118 0,1.968 1.02,3.107 2.579,3.107 1.631,0 2.579,-1.199 2.579,-2.926 l 0,-0.54 -3.946,0 z"
             style="fill:#0979b8;fill-opacity:1;fill-rule:nonzero;stroke:none"
             id="path296" /></g><g
           id="g298"
           transform="translate(160.016,27.6536)"><path
             d="m 0,0 0,3.706 c 0,0.947 -0.54,1.356 -1.223,1.356 -0.684,0 -1.259,-0.42 -1.259,-1.356 l 0,-3.706 -1.224,0 0,6.081 1.2,0 0,-0.612 c 0.419,0.456 1.007,0.683 1.619,0.683 0.623,0 1.139,-0.203 1.499,-0.551 C 1.08,5.146 1.224,4.569 1.224,3.886 L 1.224,0 0,0 z"
             style="fill:#0979b8;fill-opacity:1;fill-rule:nonzero;stroke:none"
             id="path300" /></g><path
           d="m 163.042,33.735 1.223,0 0,-6.081 -1.223,0 0,6.081 z m -0.036,2.494 1.295,0 0,-1.295 -1.295,0 0,1.295 z"
           style="fill:#0979b8;fill-opacity:1;fill-rule:nonzero;stroke:none"
           id="path302" /><g
           id="g304"
           transform="translate(169.5922,32.0188)"><path
             d="M 0,0 C -0.191,0.456 -0.624,0.768 -1.199,0.768 -1.775,0.768 -2.219,0.456 -2.41,0 -2.53,-0.275 -2.555,-0.455 -2.566,-0.827 l 2.734,0 C 0.156,-0.455 0.12,-0.275 0,0 m -2.566,-1.679 c 0,-1.043 0.551,-1.703 1.546,-1.703 0.684,0 1.044,0.193 1.476,0.624 l 0.779,-0.731 c -0.624,-0.624 -1.211,-0.948 -2.278,-0.948 -1.523,0 -2.735,0.803 -2.735,3.118 0,1.967 1.019,3.106 2.579,3.106 1.631,0 2.578,-1.199 2.578,-2.926 l 0,-0.54 -3.945,0 z"
             style="fill:#0979b8;fill-opacity:1;fill-rule:nonzero;stroke:none"
             id="path306" /></g><g
           id="g308"
           transform="translate(175.8558,32.3069)"><path
             d="m 0,0 c -0.275,0.276 -0.491,0.408 -0.911,0.408 -0.66,0 -1.212,-0.528 -1.212,-1.367 l 0,-3.694 -1.223,0 0,6.081 1.2,0 0,-0.66 c 0.311,0.431 0.935,0.731 1.619,0.731 0.588,0 1.031,-0.155 1.451,-0.575 L 0,0 z"
             style="fill:#0979b8;fill-opacity:1;fill-rule:nonzero;stroke:none"
             id="path310" /></g><path
           d="m 177.694,33.735 1.223,0 0,-6.081 -1.223,0 0,6.081 z m -0.036,2.494 1.295,0 0,-1.295 -1.295,0 0,1.295 z"
           style="fill:#0979b8;fill-opacity:1;fill-rule:nonzero;stroke:none"
           id="path312" /><g
           id="g314"
           transform="translate(184.2435,32.0188)"><path
             d="M 0,0 C -0.191,0.456 -0.624,0.768 -1.199,0.768 -1.775,0.768 -2.219,0.456 -2.41,0 -2.53,-0.275 -2.555,-0.455 -2.566,-0.827 l 2.734,0 C 0.156,-0.455 0.12,-0.275 0,0 m -2.566,-1.679 c 0,-1.043 0.551,-1.703 1.546,-1.703 0.684,0 1.044,0.193 1.476,0.624 l 0.779,-0.731 c -0.624,-0.624 -1.211,-0.948 -2.278,-0.948 -1.523,0 -2.735,0.803 -2.735,3.118 0,1.967 1.019,3.106 2.579,3.106 1.631,0 2.578,-1.199 2.578,-2.926 l 0,-0.54 -3.945,0 z"
             style="fill:#0979b8;fill-opacity:1;fill-rule:nonzero;stroke:none"
             id="path316" /></g><g
           id="g318"
           transform="translate(193.4232,32.0188)"><path
             d="M 0,0 C -0.191,0.456 -0.624,0.768 -1.199,0.768 -1.775,0.768 -2.219,0.456 -2.41,0 -2.53,-0.275 -2.555,-0.455 -2.566,-0.827 l 2.734,0 C 0.156,-0.455 0.12,-0.275 0,0 m -2.566,-1.679 c 0,-1.043 0.551,-1.703 1.546,-1.703 0.684,0 1.044,0.193 1.476,0.624 l 0.779,-0.731 c -0.624,-0.624 -1.211,-0.948 -2.278,-0.948 -1.523,0 -2.735,0.803 -2.735,3.118 0,1.967 1.019,3.106 2.579,3.106 1.631,0 2.578,-1.199 2.578,-2.926 l 0,-0.54 -3.945,0 z"
             style="fill:#0979b8;fill-opacity:1;fill-rule:nonzero;stroke:none"
             id="path320" /></g><g
           id="g322"
           transform="translate(198.1517,27.6536)"><path
             d="m 0,0 c -1.139,0 -1.667,0.815 -1.667,1.691 l 0,3.346 -0.695,0 0,0.936 0.695,0 0,1.846 1.224,0 0,-1.846 1.174,0 0,-0.936 -1.174,0 0,-3.286 c 0,-0.443 0.215,-0.708 0.672,-0.708 l 0.502,0 L 0.731,0 0,0 z"
             style="fill:#0979b8;fill-opacity:1;fill-rule:nonzero;stroke:none"
             id="path324" /></g><g
           id="g326"
           transform="translate(205.3646,32.7151)"><path
             d="m 0,0 c -1.104,0 -1.271,-0.936 -1.271,-2.016 0,-1.079 0.167,-2.026 1.271,-2.026 1.103,0 1.259,0.947 1.259,2.026 C 1.259,-0.936 1.103,0 0,0 m 1.283,-5.062 0,0.648 c -0.456,-0.552 -0.948,-0.72 -1.607,-0.72 -0.612,0 -1.152,0.204 -1.488,0.54 -0.611,0.612 -0.683,1.656 -0.683,2.578 0,0.924 0.072,1.955 0.683,2.568 0.336,0.336 0.864,0.539 1.476,0.539 0.648,0 1.151,-0.155 1.595,-0.684 l 0,3.071 1.223,0 0,-8.54 -1.199,0 z"
             style="fill:#0979b8;fill-opacity:1;fill-rule:nonzero;stroke:none"
             id="path328" /></g><g
           id="g330"
           transform="translate(209.6732,33.8421)"><path
             d="m 0,0 0,2.351 1.343,0 0,-1.259 L 0,0 z"
             style="fill:#0979b8;fill-opacity:1;fill-rule:nonzero;stroke:none"
             id="path332" /></g><g
           id="g334"
           transform="translate(216.0912,30.3401)"><path
             d="m 0,0 -1.427,0 c -0.719,0 -1.092,-0.324 -1.092,-0.876 0,-0.551 0.348,-0.863 1.116,-0.863 0.467,0 0.815,0.036 1.139,0.347 0.18,0.181 0.264,0.468 0.264,0.9 L 0,0 z m 0.024,-2.687 0,0.552 c -0.444,-0.443 -0.864,-0.624 -1.619,-0.624 -0.756,0 -1.259,0.181 -1.632,0.552 -0.311,0.324 -0.479,0.792 -0.479,1.308 0,1.019 0.708,1.751 2.099,1.751 l 1.607,0 0,0.431 c 0,0.768 -0.384,1.14 -1.331,1.14 -0.672,0 -0.996,-0.156 -1.331,-0.588 l -0.804,0.756 c 0.575,0.672 1.175,0.875 2.183,0.875 1.667,0 2.507,-0.707 2.507,-2.087 l 0,-4.066 -1.2,0 z"
             style="fill:#0979b8;fill-opacity:1;fill-rule:nonzero;stroke:none"
             id="path336" /></g><g
           id="g338"
           transform="translate(222.4633,32.3069)"><path
             d="m 0,0 c -0.275,0.276 -0.491,0.408 -0.911,0.408 -0.66,0 -1.212,-0.528 -1.212,-1.367 l 0,-3.694 -1.223,0 0,6.081 1.2,0 0,-0.66 c 0.311,0.431 0.935,0.731 1.619,0.731 0.588,0 1.031,-0.155 1.451,-0.575 L 0,0 z"
             style="fill:#0979b8;fill-opacity:1;fill-rule:nonzero;stroke:none"
             id="path340" /></g><g
           id="g342"
           transform="translate(226.3129,27.5813)"><path
             d="m 0,0 c -1.367,0 -2.711,0.84 -2.711,3.118 0,2.279 1.344,3.107 2.711,3.107 0.84,0 1.428,-0.24 2.003,-0.852 L 1.163,4.558 C 0.779,4.978 0.479,5.134 0,5.134 c -0.468,0 -0.863,-0.193 -1.127,-0.54 -0.265,-0.336 -0.36,-0.768 -0.36,-1.476 0,-0.707 0.095,-1.151 0.36,-1.486 0.264,-0.349 0.659,-0.54 1.127,-0.54 0.479,0 0.779,0.156 1.163,0.575 L 2.003,0.864 C 1.428,0.252 0.84,0 0,0"
             style="fill:#0979b8;fill-opacity:1;fill-rule:nonzero;stroke:none"
             id="path344" /></g><g
           id="g346"
           transform="translate(233.3324,27.6536)"><path
             d="m 0,0 0,3.729 c 0,0.924 -0.54,1.333 -1.224,1.333 -0.683,0 -1.235,-0.42 -1.235,-1.333 l 0,-3.729 -1.223,0 0,8.539 1.223,0 0,-3.07 c 0.42,0.456 0.972,0.683 1.571,0.683 1.356,0 2.112,-0.911 2.112,-2.23 L 1.224,0 0,0 z"
             style="fill:#0979b8;fill-opacity:1;fill-rule:nonzero;stroke:none"
             id="path348" /></g><path
           d="m 236.358,33.735 1.223,0 0,-6.081 -1.223,0 0,6.081 z m -0.036,2.494 1.295,0 0,-1.295 -1.295,0 0,1.295 z"
           style="fill:#0979b8;fill-opacity:1;fill-rule:nonzero;stroke:none"
           id="path350" /><g
           id="g352"
           transform="translate(241.2523,27.6536)"><path
             d="m 0,0 c -1.139,0 -1.667,0.815 -1.667,1.691 l 0,3.346 -0.695,0 0,0.936 0.695,0 0,1.846 1.224,0 0,-1.846 1.174,0 0,-0.936 -1.174,0 0,-3.286 c 0,-0.443 0.215,-0.708 0.672,-0.708 l 0.502,0 L 0.731,0 0,0 z"
             style="fill:#0979b8;fill-opacity:1;fill-rule:nonzero;stroke:none"
             id="path354" /></g><g
           id="g356"
           transform="translate(246.8666,32.0188)"><path
             d="M 0,0 C -0.191,0.456 -0.624,0.768 -1.199,0.768 -1.775,0.768 -2.219,0.456 -2.41,0 -2.53,-0.275 -2.555,-0.455 -2.566,-0.827 l 2.734,0 C 0.156,-0.455 0.12,-0.275 0,0 m -2.566,-1.679 c 0,-1.043 0.551,-1.703 1.546,-1.703 0.684,0 1.044,0.193 1.476,0.624 l 0.779,-0.731 c -0.624,-0.624 -1.211,-0.948 -2.278,-0.948 -1.523,0 -2.735,0.803 -2.735,3.118 0,1.967 1.019,3.106 2.579,3.106 1.631,0 2.578,-1.199 2.578,-2.926 l 0,-0.54 -3.945,0 z"
             style="fill:#0979b8;fill-opacity:1;fill-rule:nonzero;stroke:none"
             id="path358" /></g><g
           id="g360"
           transform="translate(252.183,27.5813)"><path
             d="m 0,0 c -1.367,0 -2.711,0.84 -2.711,3.118 0,2.279 1.344,3.107 2.711,3.107 0.84,0 1.427,-0.24 2.003,-0.852 L 1.163,4.558 C 0.779,4.978 0.479,5.134 0,5.134 c -0.468,0 -0.863,-0.193 -1.127,-0.54 -0.265,-0.336 -0.36,-0.768 -0.36,-1.476 0,-0.707 0.095,-1.151 0.36,-1.486 0.264,-0.349 0.659,-0.54 1.127,-0.54 0.479,0 0.779,0.156 1.163,0.575 L 2.003,0.864 C 1.427,0.252 0.84,0 0,0"
             style="fill:#0979b8;fill-opacity:1;fill-rule:nonzero;stroke:none"
             id="path362" /></g><g
           id="g364"
           transform="translate(257.3304,27.6536)"><path
             d="m 0,0 c -1.139,0 -1.667,0.815 -1.667,1.691 l 0,3.346 -0.695,0 0,0.936 0.695,0 0,1.846 1.224,0 0,-1.846 1.174,0 0,-0.936 -1.174,0 0,-3.286 c 0,-0.443 0.215,-0.708 0.672,-0.708 l 0.502,0 L 0.731,0 0,0 z"
             style="fill:#0979b8;fill-opacity:1;fill-rule:nonzero;stroke:none"
             id="path366" /></g><g
           id="g368"
           transform="translate(263.2103,27.6536)"><path
             d="m 0,0 0,0.611 c -0.42,-0.455 -1.008,-0.683 -1.619,-0.683 -0.624,0 -1.14,0.204 -1.499,0.551 -0.468,0.457 -0.612,1.032 -0.612,1.715 l 0,3.887 1.223,0 0,-3.706 c 0,-0.948 0.54,-1.355 1.224,-1.355 0.683,0 1.259,0.419 1.259,1.355 l 0,3.706 1.223,0 L 1.199,0 0,0 z"
             style="fill:#0979b8;fill-opacity:1;fill-rule:nonzero;stroke:none"
             id="path370" /></g><g
           id="g372"
           transform="translate(269.6302,32.3069)"><path
             d="m 0,0 c -0.275,0.276 -0.491,0.408 -0.911,0.408 -0.66,0 -1.212,-0.528 -1.212,-1.367 l 0,-3.694 -1.223,0 0,6.081 1.2,0 0,-0.66 c 0.311,0.431 0.935,0.731 1.619,0.731 0.588,0 1.031,-0.155 1.451,-0.575 L 0,0 z"
             style="fill:#0979b8;fill-opacity:1;fill-rule:nonzero;stroke:none"
             id="path374" /></g><g
           id="g376"
           transform="translate(274.559,32.0188)"><path
             d="M 0,0 C -0.191,0.456 -0.624,0.768 -1.199,0.768 -1.775,0.768 -2.219,0.456 -2.41,0 -2.53,-0.275 -2.555,-0.455 -2.566,-0.827 l 2.734,0 C 0.156,-0.455 0.12,-0.275 0,0 m -2.566,-1.679 c 0,-1.043 0.551,-1.703 1.546,-1.703 0.684,0 1.044,0.193 1.476,0.624 l 0.779,-0.731 c -0.624,-0.624 -1.211,-0.948 -2.278,-0.948 -1.523,0 -2.735,0.803 -2.735,3.118 0,1.967 1.019,3.106 2.579,3.106 1.631,0 2.578,-1.199 2.578,-2.926 l 0,-0.54 -3.945,0 z"
             style="fill:#0979b8;fill-opacity:1;fill-rule:nonzero;stroke:none"
             id="path378" /></g><g
           id="g380"
           transform="translate(281.7123,35.0296)"><path
             d="m 0,0 0,-2.603 3.55,0 0,-1.163 -3.55,0 0,-3.61 -1.296,0 0,8.539 5.457,0 L 4.161,0 0,0 z"
             style="fill:#0979b8;fill-opacity:1;fill-rule:nonzero;stroke:none"
             id="path382" /></g><g
           id="g384"
           transform="translate(290.1947,32.3069)"><path
             d="m 0,0 c -0.275,0.276 -0.491,0.408 -0.911,0.408 -0.66,0 -1.212,-0.528 -1.212,-1.367 l 0,-3.694 -1.223,0 0,6.081 1.2,0 0,-0.66 c 0.311,0.431 0.935,0.731 1.619,0.731 0.588,0 1.031,-0.155 1.451,-0.575 L 0,0 z"
             style="fill:#0979b8;fill-opacity:1;fill-rule:nonzero;stroke:none"
             id="path386" /></g><path
           d="m 292.056,33.735 1.223,0 0,-6.081 -1.223,0 0,6.081 z m -0.036,2.494 1.295,0 0,-1.295 -1.295,0 0,1.295 z"
           style="fill:#0979b8;fill-opacity:1;fill-rule:nonzero;stroke:none"
           id="path388" /><g
           id="g390"
           transform="translate(297.6586,32.7151)"><path
             d="m 0,0 c -1.104,0 -1.271,-0.936 -1.271,-2.016 0,-1.079 0.167,-2.026 1.271,-2.026 1.104,0 1.26,0.947 1.26,2.026 C 1.26,-0.936 1.104,0 0,0 m 1.799,-4.594 c -0.335,-0.336 -0.875,-0.54 -1.487,-0.54 -0.66,0 -1.151,0.168 -1.607,0.72 l 0,-0.648 -1.199,0 0,8.54 1.223,0 0,-3.071 c 0.444,0.529 0.948,0.684 1.595,0.684 0.612,0 1.14,-0.203 1.475,-0.539 0.612,-0.613 0.683,-1.644 0.683,-2.568 0,-0.922 -0.071,-1.966 -0.683,-2.578"
             style="fill:#0979b8;fill-opacity:1;fill-rule:nonzero;stroke:none"
             id="path392" /></g><g
           id="g394"
           transform="translate(304.8822,32.3674)"><path
             d="m 0,0 c -0.228,0.228 -0.539,0.348 -0.899,0.348 -0.36,0 -0.66,-0.12 -0.887,-0.348 -0.372,-0.372 -0.42,-1.008 -0.42,-1.668 0,-0.659 0.048,-1.295 0.42,-1.667 0.227,-0.228 0.527,-0.359 0.887,-0.359 0.36,0 0.671,0.131 0.899,0.359 0.372,0.372 0.42,1.008 0.42,1.667 C 0.42,-1.008 0.372,-0.372 0,0 m 0.924,-4.066 c -0.396,-0.408 -0.995,-0.72 -1.823,-0.72 -0.828,0 -1.415,0.312 -1.811,0.72 -0.576,0.599 -0.72,1.367 -0.72,2.398 0,1.02 0.144,1.787 0.72,2.387 0.396,0.408 0.983,0.719 1.811,0.719 0.828,0 1.427,-0.311 1.823,-0.719 0.576,-0.6 0.72,-1.367 0.72,-2.387 0,-1.031 -0.144,-1.799 -0.72,-2.398"
             style="fill:#0979b8;fill-opacity:1;fill-rule:nonzero;stroke:none"
             id="path396" /></g><g
           id="g398"
           transform="translate(311.7699,27.6536)"><path
             d="m 0,0 0,0.611 c -0.42,-0.455 -1.008,-0.683 -1.619,-0.683 -0.624,0 -1.14,0.204 -1.499,0.551 -0.468,0.457 -0.612,1.032 -0.612,1.715 l 0,3.887 1.223,0 0,-3.706 c 0,-0.948 0.54,-1.355 1.224,-1.355 0.683,0 1.259,0.419 1.259,1.355 l 0,3.706 1.223,0 L 1.199,0 0,0 z"
             style="fill:#0979b8;fill-opacity:1;fill-rule:nonzero;stroke:none"
             id="path400" /></g><g
           id="g402"
           transform="translate(318.1781,32.3069)"><path
             d="m 0,0 c -0.275,0.276 -0.491,0.408 -0.911,0.408 -0.66,0 -1.212,-0.528 -1.212,-1.367 l 0,-3.694 -1.223,0 0,6.081 1.2,0 0,-0.66 c 0.311,0.431 0.935,0.731 1.619,0.731 0.588,0 1.031,-0.155 1.451,-0.575 L 0,0 z"
             style="fill:#0979b8;fill-opacity:1;fill-rule:nonzero;stroke:none"
             id="path404" /></g><g
           id="g406"
           transform="translate(321.8119,32.7151)"><path
             d="m 0,0 c -1.104,0 -1.247,-0.948 -1.247,-1.907 0,-0.96 0.143,-1.907 1.247,-1.907 1.104,0 1.235,0.947 1.235,1.907 C 1.235,-0.948 1.104,0 0,0 m -0.144,-7.592 c -0.923,0 -1.511,0.216 -2.147,0.804 l 0.78,0.779 c 0.384,-0.36 0.719,-0.54 1.319,-0.54 1.032,0 1.427,0.732 1.427,1.547 l 0,0.78 C 0.792,-4.75 0.288,-4.918 -0.336,-4.918 c -0.611,0 -1.115,0.204 -1.451,0.54 -0.588,0.588 -0.684,1.44 -0.684,2.471 0,1.031 0.096,1.883 0.684,2.47 0.336,0.336 0.851,0.528 1.463,0.528 0.648,0 1.139,-0.168 1.595,-0.72 l 0,0.649 1.188,0 0,-6.045 c 0,-1.488 -0.983,-2.567 -2.603,-2.567"
             style="fill:#0979b8;fill-opacity:1;fill-rule:nonzero;stroke:none"
             id="path408" /></g></g></g></g></svg>